<?xml version="1.0" encoding="UTF-8"?>
<!DOCTYPE svg PUBLIC "-//W3C//DTD SVG 1.0//EN" "http://www.w3.org/TR/2001/REC-SVG-20010904/DTD/svg10.dtd">
<!-- Creator: CorelDRAW X8 -->
<svg xmlns="http://www.w3.org/2000/svg" xml:space="preserve" width="86.724mm" height="91.1831mm" version="1.0" style="shape-rendering:geometricPrecision; text-rendering:geometricPrecision; image-rendering:optimizeQuality; fill-rule:evenodd; clip-rule:evenodd"
viewBox="0 0 5290 5562"
 xmlns:xlink="http://www.w3.org/1999/xlink">
 <defs>
  <style type="text/css">
   <![CDATA[
    .fil0 {fill:#ffffff}
    .fil1 {fill:#ffffff;fill-rule:nonzero}
   ]]>
  </style>
 </defs>
 <g id="Слой_x0020_1">
  <metadata id="CorelCorpID_0Corel-Layer"/>
  <g id="_94842464">
  </g>
  <polygon class="fil0" points="3017,4 2855,4 2855,8 2820,8 2820,12 2804,12 2804,16 2792,16 2792,20 2749,20 2749,24 2705,24 2705,28 2689,28 2689,32 2681,32 2681,36 2666,36 2666,40 2626,40 2626,43 2606,43 2606,47 2598,47 2598,51 2594,51 2594,55 2563,55 2563,59 2539,59 2539,63 2531,63 2531,67 2523,67 2523,71 2515,71 2515,75 2488,75 2488,79 2468,79 2468,83 2460,83 2460,87 2456,87 2456,91 2440,91 2440,95 2420,95 2420,99 2409,99 2409,103 2405,103 2405,107 2397,107 2397,111 2373,111 2373,115 2361,115 2361,119 2357,119 2357,123 2353,123 2353,127 2341,127 2341,130 2322,130 2322,134 2314,134 2314,138 2310,138 2310,142 2302,142 2302,146 2286,146 2286,150 2274,150 2274,154 2266,154 2266,158 2262,158 2262,162 2254,162 2254,166 2235,166 2235,170 2231,170 2231,174 2227,174 2227,178 2219,178 2219,182 2203,182 2203,186 2191,186 2191,190 2187,190 2187,198 2175,198 2175,202 2163,202 2163,206 2155,206 2155,210 2152,210 2152,214 2148,214 2148,217 2132,217 2132,221 2124,221 2124,225 2116,225 2116,233 2104,233 2104,237 2092,237 2092,241 2088,241 2088,245 2084,245 2084,249 2080,249 2080,253 2065,253 2065,257 2057,257 2057,261 2053,261 2053,265 2049,265 2049,269 2041,269 2041,273 2029,273 2029,277 2025,277 2025,281 2021,281 2021,285 2017,285 2017,289 2005,289 2005,293 1997,293 1997,297 1993,297 1993,304 1985,304 1985,308 1974,308 1974,312 1970,312 1970,316 1962,316 1962,320 1958,320 1958,324 1950,324 1950,328 1942,328 1942,332 1938,332 1938,340 1930,340 1930,344 1918,344 1918,348 1914,348 1914,352 1910,352 1910,356 1906,356 1906,360 1898,360 1898,364 1891,364 1891,368 1887,368 1887,376 1883,376 1883,380 1871,380 1871,384 1867,384 1867,387 1863,387 1863,391 1859,391 1859,395 1847,395 1847,399 1843,399 1843,403 1839,403 1839,407 1835,407 1835,411 1831,411 1831,415 1823,415 1823,419 1819,419 1819,423 1815,423 1815,427 1811,427 1811,431 1808,431 1808,435 1800,435 1800,439 1796,439 1796,443 1792,443 1792,447 1788,447 1788,451 1780,451 1780,455 1776,455 1776,459 1772,459 1772,463 1768,463 1768,467 1760,467 1760,471 1756,471 1756,474 1752,474 1752,478 1748,478 1748,482 1744,482 1744,486 1736,486 1736,490 1732,490 1732,494 1728,494 1728,498 1724,498 1724,502 1721,502 1721,506 1713,506 1713,510 1709,510 1709,518 1705,518 1705,522 1701,522 1701,526 1693,526 1693,530 1689,530 1689,538 1685,538 1685,542 1677,542 1677,546 1673,546 1673,550 1669,550 1669,557 1661,557 1661,561 1657,561 1657,565 1653,565 1653,569 1649,569 1649,577 1641,577 1641,581 1637,581 1637,585 1634,585 1634,593 1626,593 1626,597 1622,597 1622,601 1618,601 1618,609 1614,609 1614,613 1606,613 1606,617 1602,617 1602,621 1598,621 1598,629 1594,629 1594,633 1586,633 1586,637 1582,637 1582,644 1578,644 1578,648 1574,648 1574,652 1566,652 1566,660 1562,660 1562,664 1558,664 1558,668 1554,668 1554,672 1551,672 1551,676 1547,676 1547,684 1543,684 1543,688 1539,688 1539,692 1535,692 1535,696 1531,696 1531,700 1527,700 1527,708 1523,708 1523,716 1515,716 1515,720 1511,720 1511,724 1507,724 1507,735 1499,735 1499,739 1495,739 1495,743 1491,743 1491,751 1487,751 1487,755 1483,755 1483,759 1479,759 1479,763 1475,763 1475,771 1471,771 1471,775 1467,775 1467,779 1464,779 1464,787 1460,787 1460,791 1456,791 1456,795 1452,795 1452,807 1444,807 1444,811 1440,811 1440,818 1436,818 1436,826 1432,826 1432,830 1424,830 1424,838 1420,838 1420,846 1416,846 1416,854 1412,854 1412,858 1408,858 1408,862 1404,862 1404,866 1400,866 1400,878 1396,878 1396,882 1392,882 1392,886 1388,886 1388,890 1384,890 1384,898 1380,898 1380,909 1377,909 1377,913 1369,913 1369,921 1365,921 1365,933 1361,933 1361,937 1353,937 1353,945 1349,945 1349,953 1345,953 1345,965 1341,965 1341,969 1337,969 1337,973 1333,973 1333,977 1329,977 1329,988 1325,988 1325,996 1321,996 1321,1000 1317,1000 1317,1004 1313,1004 1313,1016 1309,1016 1309,1024 1305,1024 1305,1028 1301,1028 1301,1032 1297,1032 1297,1040 1294,1040 1294,1056 1290,1056 1290,1060 1286,1060 1286,1064 1282,1064 1282,1072 1278,1072 1278,1083 1274,1083 1274,1095 1270,1095 1270,1099 1266,1099 1266,1103 1262,1103 1262,1111 1258,1111 1258,1127 1254,1127 1254,1131 1250,1131 1250,1135 1246,1135 1246,1143 1242,1143 1242,1159 1238,1159 1238,1170 1234,1170 1234,1174 1230,1174 1230,1178 1226,1178 1226,1186 1222,1186 1222,1202 1218,1202 1218,1214 1214,1214 1214,1218 1210,1218 1210,1222 1207,1222 1207,1238 1203,1238 1203,1253 1199,1253 1199,1257 1195,1257 1195,1265 1191,1265 1191,1273 1187,1273 1187,1293 1183,1293 1183,1305 1179,1305 1179,1309 1175,1309 1175,1313 1171,1313 1171,1332 1167,1332 1167,1352 1163,1352 1163,1356 1159,1356 1159,1364 1155,1364 1155,1376 1151,1376 1151,1400 1147,1400 1147,1412 1143,1412 1143,1416 1139,1416 1139,1419 1135,1419 1135,1423 1131,1423 1131,1431 1127,1431 1127,1435 1100,1435 1100,1439 1092,1439 1092,1443 1088,1443 1088,1447 1068,1447 1068,1451 1056,1451 1056,1459 1048,1459 1048,1463 1033,1463 1033,1467 1025,1467 1025,1471 1021,1471 1021,1475 1013,1475 1013,1479 1001,1479 1001,1483 997,1483 997,1487 993,1487 993,1491 985,1491 985,1495 973,1495 973,1499 969,1499 969,1502 965,1502 965,1506 957,1506 957,1510 953,1510 953,1514 946,1514 946,1518 942,1518 942,1522 938,1522 938,1526 930,1526 930,1530 926,1530 926,1534 922,1534 922,1538 918,1538 918,1542 910,1542 910,1546 906,1546 906,1550 902,1550 902,1554 898,1554 898,1558 894,1558 894,1562 890,1562 890,1566 886,1566 886,1570 882,1570 882,1574 878,1574 878,1582 874,1582 874,1586 866,1586 866,1589 863,1589 863,1593 859,1593 859,1605 851,1605 851,1609 843,1609 843,1617 839,1617 839,1625 835,1625 835,1633 831,1633 831,1637 823,1637 823,1641 819,1641 819,1653 815,1653 815,1661 811,1661 811,1665 807,1665 807,1669 803,1669 803,1673 799,1673 799,1680 795,1680 795,1692 791,1692 791,1696 787,1696 787,1700 783,1700 783,1704 779,1704 779,1712 776,1712 776,1728 772,1728 772,1740 768,1740 768,1744 764,1744 764,1748 760,1748 760,1756 756,1756 756,1767 752,1767 752,1787 748,1787 748,1803 744,1803 744,1815 740,1815 740,1823 736,1823 736,1831 732,1831 732,1846 728,1846 728,1866 724,1866 724,1898 728,1898 728,1906 736,1906 736,1910 748,1910 748,1914 783,1914 783,1918 827,1918 827,1922 863,1922 863,1926 898,1926 898,1930 938,1930 938,1933 965,1933 965,1949 969,1949 969,1957 965,1957 965,1989 961,1989 961,2024 957,2024 957,2068 953,2068 953,2103 950,2103 950,2139 946,2139 946,2179 942,2179 942,2214 938,2214 938,2242 942,2242 942,2250 946,2250 946,2254 950,2254 950,2270 953,2270 953,2274 957,2274 957,2277 961,2277 961,2281 965,2281 965,2285 969,2285 969,2289 977,2289 977,2293 985,2293 985,2297 989,2297 989,2301 993,2301 993,2305 1009,2305 1009,2309 1017,2309 1017,2305 1025,2305 1025,2301 1037,2301 1037,2297 1052,2297 1052,2293 1056,2293 1056,2289 1060,2289 1060,2285 1064,2285 1064,2281 1068,2281 1068,2277 1072,2277 1072,2274 1076,2274 1076,2270 1080,2270 1080,2266 1084,2266 1084,2254 1088,2254 1088,2226 1092,2226 1092,2187 1096,2187 1096,2151 1100,2151 1100,2111 1104,2111 1104,2072 1108,2072 1108,2036 1112,2036 1112,1997 1116,1997 1116,1965 1120,1965 1120,1953 1163,1953 1163,1957 1203,1957 1203,1961 1242,1961 1242,1965 1274,1965 1274,1969 1309,1969 1309,1973 1353,1973 1353,1977 1388,1977 1388,1981 1408,1981 1408,2036 1404,2036 1404,2072 1400,2072 1400,2107 1396,2107 1396,2147 1392,2147 1392,2187 1388,2187 1388,2222 1384,2222 1384,2258 1380,2258 1380,2297 1384,2297 1384,2305 1388,2305 1388,2309 1392,2309 1392,2317 1396,2317 1396,2325 1400,2325 1400,2329 1404,2329 1404,2333 1408,2333 1408,2337 1416,2337 1416,2341 1424,2341 1424,2345 1428,2345 1428,2349 1436,2349 1436,2353 1464,2353 1464,2349 1467,2349 1467,2345 1487,2345 1487,2341 1495,2341 1495,2333 1503,2333 1503,2329 1507,2329 1507,2325 1511,2325 1511,2317 1515,2317 1515,2313 1519,2313 1519,2309 1523,2309 1523,2305 1527,2305 1527,2293 1531,2293 1531,2270 1535,2270 1535,2226 1539,2226 1539,2190 1543,2190 1543,2155 1547,2155 1547,2115 1551,2115 1551,2076 1554,2076 1554,2040 1558,2040 1558,2009 1562,2009 1562,2001 1566,2001 1566,1997 1574,1997 1574,2001 1618,2001 1618,2005 1649,2005 1649,2009 1689,2009 1689,2013 1728,2013 1728,2016 1768,2016 1768,2020 1804,2020 1804,2016 1811,2016 1811,2005 1815,2005 1815,1961 1819,1961 1819,1914 1815,1914 1815,1902 1811,1902 1811,1882 1808,1882 1808,1843 1804,1843 1804,1839 1800,1839 1800,1827 1796,1827 1796,1799 1792,1799 1792,1791 1788,1791 1788,1787 1784,1787 1784,1763 1780,1763 1780,1756 1776,1756 1776,1752 1772,1752 1772,1740 1768,1740 1768,1728 1764,1728 1764,1720 1756,1720 1756,1708 1752,1708 1752,1696 1748,1696 1748,1692 1744,1692 1744,1688 1740,1688 1740,1676 1736,1676 1736,1669 1732,1669 1732,1665 1728,1665 1728,1661 1724,1661 1724,1653 1721,1653 1721,1645 1717,1645 1717,1641 1709,1641 1709,1629 1705,1629 1705,1625 1701,1625 1701,1621 1693,1621 1693,1609 1689,1609 1689,1605 1685,1605 1685,1601 1677,1601 1677,1593 1673,1593 1673,1586 1665,1586 1665,1582 1661,1582 1661,1578 1657,1578 1657,1574 1653,1574 1653,1570 1649,1570 1649,1566 1645,1566 1645,1562 1637,1562 1637,1558 1634,1558 1634,1554 1630,1554 1630,1546 1626,1546 1626,1542 1618,1542 1618,1538 1610,1538 1610,1530 1606,1530 1606,1526 1602,1526 1602,1522 1594,1522 1594,1518 1586,1518 1586,1514 1578,1514 1578,1506 1574,1506 1574,1502 1566,1502 1566,1499 1558,1499 1558,1495 1551,1495 1551,1491 1547,1491 1547,1487 1543,1487 1543,1483 1535,1483 1535,1479 1523,1479 1523,1475 1519,1475 1519,1471 1515,1471 1515,1463 1519,1463 1519,1443 1523,1443 1523,1439 1527,1439 1527,1435 1531,1435 1531,1423 1535,1423 1535,1404 1539,1404 1539,1392 1543,1392 1543,1388 1547,1388 1547,1384 1551,1384 1551,1368 1554,1368 1554,1352 1558,1352 1558,1348 1562,1348 1562,1344 1566,1344 1566,1332 1570,1332 1570,1317 1574,1317 1574,1309 1578,1309 1578,1305 1582,1305 1582,1301 1586,1301 1586,1289 1590,1289 1590,1277 1594,1277 1594,1269 1598,1269 1598,1265 1602,1265 1602,1257 1606,1257 1606,1245 1610,1245 1610,1238 1614,1238 1614,1234 1618,1234 1618,1230 1622,1230 1622,1218 1626,1218 1626,1206 1630,1206 1630,1202 1634,1202 1634,1198 1637,1198 1637,1190 1641,1190 1641,1178 1645,1178 1645,1170 1653,1170 1653,1166 1657,1166 1657,1159 1661,1159 1661,1143 1665,1143 1665,1139 1669,1139 1669,1135 1673,1135 1673,1131 1677,1131 1677,1119 1681,1119 1681,1115 1685,1115 1685,1111 1689,1111 1689,1107 1693,1107 1693,1099 1697,1099 1697,1087 1701,1087 1701,1083 1709,1083 1709,1075 1713,1075 1713,1068 1717,1068 1717,1060 1721,1060 1721,1056 1724,1056 1724,1052 1728,1052 1728,1048 1732,1048 1732,1036 1736,1036 1736,1032 1744,1032 1744,1028 1748,1028 1748,1016 1752,1016 1752,1012 1756,1012 1756,1008 1760,1008 1760,1004 1764,1004 1764,1000 1768,1000 1768,992 1772,992 1772,988 1776,988 1776,985 1780,985 1780,981 1784,981 1784,973 1788,973 1788,965 1792,965 1792,961 1800,961 1800,953 1804,953 1804,945 1808,945 1808,941 1815,941 1815,937 1819,937 1819,925 1827,925 1827,921 1831,921 1831,917 1835,917 1835,913 1839,913 1839,905 1843,905 1843,901 1851,901 1851,894 1855,894 1855,890 1859,890 1859,886 1863,886 1863,882 1867,882 1867,878 1871,878 1871,874 1875,874 1875,870 1879,870 1879,866 1883,866 1883,862 1887,862 1887,858 1891,858 1891,854 1895,854 1895,850 1898,850 1898,846 1902,846 1902,842 1906,842 1906,838 1910,838 1910,834 1914,834 1914,830 1918,830 1918,826 1922,826 1922,822 1926,822 1926,818 1930,818 1930,815 1934,815 1934,811 1938,811 1938,807 1942,807 1942,803 1946,803 1946,799 1950,799 1950,795 1958,795 1958,787 1962,787 1962,783 1966,783 1966,779 1974,779 1974,775 1978,775 1978,767 1981,767 1981,763 1989,763 1989,759 1997,759 1997,751 2001,751 2001,747 2009,747 2009,743 2013,743 2013,739 2017,739 2017,735 2021,735 2021,731 2025,731 2025,728 2033,728 2033,724 2037,724 2037,720 2041,720 2041,716 2045,716 2045,712 2053,712 2053,708 2061,708 2061,704 2065,704 2065,700 2068,700 2068,696 2072,696 2072,692 2080,692 2080,688 2084,688 2084,684 2088,684 2088,676 2100,676 2100,672 2108,672 2108,668 2112,668 2112,664 2116,664 2116,660 2124,660 2124,656 2128,656 2128,652 2136,652 2136,648 2140,648 2140,641 2148,641 2148,637 2159,637 2159,633 2163,633 2163,629 2167,629 2167,625 2175,625 2175,621 2183,621 2183,617 2191,617 2191,613 2195,613 2195,605 2207,605 2207,601 2215,601 2215,597 2223,597 2223,593 2227,593 2227,589 2231,589 2231,585 2242,585 2242,581 2250,581 2250,577 2254,577 2254,573 2258,573 2258,569 2266,569 2266,565 2278,565 2278,561 2286,561 2286,554 2294,554 2294,550 2310,550 2310,546 2318,546 2318,542 2322,542 2322,538 2325,538 2325,534 2337,534 2337,530 2349,530 2349,526 2357,526 2357,522 2361,522 2361,518 2369,518 2369,514 2381,514 2381,510 2393,510 2393,506 2401,506 2401,502 2405,502 2405,498 2412,498 2412,494 2428,494 2428,490 2440,490 2440,486 2444,486 2444,482 2448,482 2448,478 2468,478 2468,474 2480,474 2480,471 2488,471 2488,467 2492,467 2492,463 2499,463 2499,459 2527,459 2527,455 2535,455 2535,451 2539,451 2539,447 2547,447 2547,443 2567,443 2567,439 2586,439 2586,435 2594,435 2594,431 2602,431 2602,427 2618,427 2618,423 2646,423 2646,419 2658,419 2658,415 2666,415 2666,411 2677,411 2677,407 2709,407 2709,403 2733,403 2733,399 2749,399 2749,395 2760,395 2760,391 2780,391 2780,387 2836,387 2836,384 2859,384 2859,380 2879,380 2879,376 2903,376 2903,372 3183,372 3183,376 3207,376 3207,380 3227,380 3227,384 3251,384 3251,387 3310,387 3310,391 3330,391 3330,395 3338,395 3338,399 3350,399 3350,403 3373,403 3373,407 3409,407 3409,411 3421,411 3421,415 3429,415 3429,419 3440,419 3440,423 3472,423 3472,427 3484,427 3484,431 3488,431 3488,435 3500,435 3500,439 3516,439 3516,443 3535,443 3535,447 3543,447 3543,451 3551,451 3551,455 3563,455 3563,459 3579,459 3579,463 3595,463 3595,467 3599,467 3599,471 3607,471 3607,474 3618,474 3618,478 3638,478 3638,482 3642,482 3642,486 3646,486 3646,490 3654,490 3654,494 3674,494 3674,498 3686,498 3686,502 3690,502 3690,506 3694,506 3694,510 3705,510 3705,514 3721,514 3721,518 3725,518 3725,522 3729,522 3729,526 3737,526 3737,530 3753,530 3753,534 3761,534 3761,538 3765,538 3765,542 3769,542 3769,546 3777,546 3777,550 3792,550 3792,554 3796,554 3796,557 3800,557 3800,561 3808,561 3808,565 3820,565 3820,569 3828,569 3828,573 3832,573 3832,577 3836,577 3836,581 3844,581 3844,585 3852,585 3852,589 3860,589 3860,593 3864,593 3864,597 3868,597 3868,601 3879,601 3879,605 3887,605 3887,609 3891,609 3891,613 3895,613 3895,617 3903,617 3903,621 3915,621 3915,625 3919,625 3919,629 3923,629 3923,633 3927,633 3927,637 3935,637 3935,641 3943,641 3943,644 3947,644 3947,648 3951,648 3951,652 3954,652 3954,656 3966,656 3966,660 3970,660 3970,664 3974,664 3974,668 3978,668 3978,672 3986,672 3986,676 3994,676 3994,680 3998,680 3998,684 4002,684 4002,688 4006,688 4006,692 4014,692 4014,696 4022,696 4022,704 4026,704 4026,708 4034,708 4034,712 4041,712 4041,716 4045,716 4045,720 4049,720 4049,724 4053,724 4053,728 4061,728 4061,731 4065,731 4065,739 4069,739 4069,743 4077,743 4077,747 4081,747 4081,751 4085,751 4085,755 4089,755 4089,759 4093,759 4093,763 4101,763 4101,767 4105,767 4105,771 4109,771 4109,775 4113,775 4113,779 4117,779 4117,783 4125,783 4125,787 4128,787 4128,791 4132,791 4132,795 4136,795 4136,799 4140,799 4140,803 4148,803 4148,811 4152,811 4152,815 4156,815 4156,818 4164,818 4164,822 4168,822 4168,830 4172,830 4172,834 4180,834 4180,838 4184,838 4184,842 4188,842 4188,850 4192,850 4192,854 4200,854 4200,858 4204,858 4204,866 4208,866 4208,870 4211,870 4211,874 4219,874 4219,882 4223,882 4223,886 4227,886 4227,890 4235,890 4235,898 4239,898 4239,905 4243,905 4243,909 4247,909 4247,913 4251,913 4251,917 4255,917 4255,921 4259,921 4259,925 4263,925 4263,933 4267,933 4267,937 4271,937 4271,941 4275,941 4275,945 4279,945 4279,953 4283,953 4283,957 4291,957 4291,961 4295,961 4295,969 4298,969 4298,973 4302,973 4302,977 4306,977 4306,981 4310,981 4310,988 4314,988 4314,996 4322,996 4322,1000 4326,1000 4326,1008 4330,1008 4330,1016 4334,1016 4334,1020 4338,1020 4338,1024 4342,1024 4342,1028 4346,1028 4346,1036 4350,1036 4350,1044 4354,1044 4354,1048 4362,1048 4362,1056 4366,1056 4366,1064 4370,1064 4370,1068 4374,1068 4374,1072 4378,1072 4378,1079 4382,1079 4382,1087 4385,1087 4385,1095 4389,1095 4389,1099 4393,1099 4393,1103 4397,1103 4397,1107 4401,1107 4401,1119 4405,1119 4405,1127 4409,1127 4409,1131 4413,1131 4413,1135 4417,1135 4417,1143 4421,1143 4421,1151 4425,1151 4425,1155 4429,1155 4429,1159 4433,1159 4433,1166 4437,1166 4437,1178 4441,1178 4441,1186 4445,1186 4445,1190 4453,1190 4453,1206 4457,1206 4457,1214 4461,1214 4461,1222 4468,1222 4468,1230 4472,1230 4472,1245 4476,1245 4476,1253 4480,1253 4480,1257 4484,1257 4484,1261 4488,1261 4488,1273 4492,1273 4492,1285 4496,1285 4496,1289 4500,1289 4500,1293 4504,1293 4504,1301 4508,1301 4508,1321 4512,1321 4512,1325 4516,1325 4516,1332 4520,1332 4520,1336 4524,1336 4524,1352 4528,1352 4528,1364 4532,1364 4532,1372 4536,1372 4536,1376 4540,1376 4540,1384 4544,1384 4544,1404 4548,1404 4548,1416 4552,1416 4552,1419 4555,1419 4555,1423 4559,1423 4559,1443 4563,1443 4563,1463 4567,1463 4567,1467 4571,1467 4571,1475 4575,1475 4575,1483 4579,1483 4579,1506 4583,1506 4583,1522 4587,1522 4587,1530 4591,1530 4591,1534 4595,1534 4595,1554 4599,1554 4599,1582 4603,1582 4603,1593 4607,1593 4607,1597 4611,1597 4611,1613 4615,1613 4615,1649 4619,1649 4619,1669 4623,1669 4623,1680 4627,1680 4627,1688 4631,1688 4631,1724 4635,1724 4635,1775 4639,1775 4639,1795 4642,1795 4642,1811 4646,1811 4646,1846 4650,1846 4650,2100 4646,2100 4646,2135 4642,2135 4642,2155 4639,2155 4639,2175 4635,2175 4635,2226 4631,2226 4631,2258 4627,2258 4627,2266 4623,2266 4623,2277 4619,2277 4619,2297 4615,2297 4615,2333 4611,2333 4611,2349 4607,2349 4607,2353 4603,2353 4603,2364 4599,2364 4599,2392 4595,2392 4595,2412 4591,2412 4591,2420 4587,2420 4587,2428 4583,2428 4583,2440 4579,2440 4579,2467 4575,2467 4575,2475 4571,2475 4571,2479 4567,2479 4567,2487 4563,2487 4563,2503 4559,2503 4559,2523 4555,2523 4555,2527 4552,2527 4552,2534 4548,2534 4548,2542 4544,2542 4544,2562 4540,2562 4540,2574 4532,2574 4532,2582 4528,2582 4528,2598 4524,2598 4524,2610 4520,2610 4520,2614 4516,2614 4516,2621 4512,2621 4512,2629 4508,2629 4508,2645 4504,2645 4504,2653 4500,2653 4500,2657 4496,2657 4496,2665 4492,2665 4492,2673 4488,2673 4488,2689 4484,2689 4484,2693 4480,2693 4480,2697 4476,2697 4476,2704 4472,2704 4472,2716 4468,2716 4468,2724 4465,2724 4465,2728 4461,2728 4461,2732 4457,2732 4457,2744 4453,2744 4453,2756 4449,2756 4449,2760 4445,2760 4445,2764 4441,2764 4441,2768 4437,2768 4437,2780 4433,2780 4433,2787 4429,2787 4429,2791 4425,2791 4425,2795 4421,2795 4421,2803 4417,2803 4417,2815 4413,2815 4413,2819 4409,2819 4409,2823 4405,2823 4405,2827 4401,2827 4401,2839 4397,2839 4397,2847 4389,2847 4389,2851 4385,2851 4385,2859 4382,2859 4382,2871 4378,2871 4378,2874 4374,2874 4374,2878 4370,2878 4370,2882 4366,2882 4366,2894 4362,2894 4362,2898 4354,2898 4354,2902 4350,2902 4350,2910 4346,2910 4346,2918 4342,2918 4342,2922 4338,2922 4338,2926 4334,2926 4334,2934 4330,2934 4330,2942 4326,2942 4326,2946 4322,2946 4322,2950 4318,2950 4318,2954 4314,2954 4314,2958 4310,2958 4310,2965 4306,2965 4306,2969 4302,2969 4302,2973 4298,2973 4298,2977 4295,2977 4295,2985 4291,2985 4291,2989 4287,2989 4287,2993 4283,2993 4283,2997 4279,2997 4279,3001 4275,3001 4275,3009 4271,3009 4271,3013 4267,3013 4267,3017 4263,3017 4263,3021 4259,3021 4259,3025 4255,3025 4255,3033 4251,3033 4251,3037 4243,3037 4243,3045 4239,3045 4239,3052 4235,3052 4235,3056 4227,3056 4227,3060 4223,3060 4223,3064 4219,3064 4219,3072 4215,3072 4215,3076 4208,3076 4208,3080 4204,3080 4204,3092 4192,3092 4192,3096 4188,3096 4188,3104 4184,3104 4184,3108 4180,3108 4180,3112 4172,3112 4172,3116 4168,3116 4168,3124 4164,3124 4164,3128 4160,3128 4160,3131 4152,3131 4152,3135 4148,3135 4148,3143 4144,3143 4144,3147 4136,3147 4136,3151 4132,3151 4132,3159 4128,3159 4128,3163 4121,3163 4121,3167 4113,3167 4113,3175 4109,3175 4109,3179 4101,3179 4101,3183 4097,3183 4097,3187 4093,3187 4093,3191 4089,3191 4089,3195 4085,3195 4085,3199 4077,3199 4077,3203 4073,3203 4073,3207 4069,3207 4069,3211 4065,3211 4065,3215 4061,3215 4061,3218 4053,3218 4053,3222 4049,3222 4049,3226 4045,3226 4045,3234 4038,3234 4038,3238 4030,3238 4030,3242 4026,3242 4026,3246 4022,3246 4022,3250 4014,3250 4014,3254 4006,3254 4006,3258 4002,3258 4002,3262 3998,3262 3998,3266 3994,3266 3994,3270 3990,3270 3990,3274 3978,3274 3978,3282 3974,3282 3974,3286 3970,3286 3970,3290 3958,3290 3958,3294 3954,3294 3954,3298 3951,3298 3951,3302 3947,3302 3947,3305 3935,3305 3935,3309 3931,3309 3931,3313 3923,3313 3923,3321 3919,3321 3919,3325 3907,3325 3907,3329 3899,3329 3899,3333 3895,3333 3895,3337 3887,3337 3887,3341 3879,3341 3879,3345 3871,3345 3871,3349 3868,3349 3868,3353 3864,3353 3864,3357 3860,3357 3860,3361 3844,3361 3844,3365 3840,3365 3840,3369 3836,3369 3836,3373 3832,3373 3832,3377 3824,3377 3824,3381 3808,3381 3808,3385 3804,3385 3804,3388 3800,3388 3800,3392 3792,3392 3792,3396 3781,3396 3781,3400 3773,3400 3773,3404 3765,3404 3765,3408 3761,3408 3761,3412 3753,3412 3753,3416 3737,3416 3737,3420 3733,3420 3733,3424 3729,3424 3729,3428 3721,3428 3721,3432 3705,3432 3705,3436 3697,3436 3697,3440 3694,3440 3694,3444 3686,3444 3686,3448 3674,3448 3674,3452 3658,3452 3658,3456 3650,3456 3650,3460 3646,3460 3646,3464 3638,3464 3638,3468 3622,3468 3622,3472 3610,3472 3610,3475 3603,3475 3603,3479 3599,3479 3599,3483 3583,3483 3583,3487 3563,3487 3563,3491 3555,3491 3555,3495 3551,3495 3551,3499 3543,3499 3543,3503 3516,3503 3516,3507 3504,3507 3504,3511 3496,3511 3496,3515 3488,3515 3488,3519 3472,3519 3472,3523 3444,3523 3444,3527 3433,3527 3433,3531 3429,3531 3429,3535 3417,3535 3417,3539 3381,3539 3381,3543 3361,3543 3361,3547 3346,3547 3346,3551 3338,3551 3338,3555 3314,3555 3314,3559 3263,3559 3263,3562 3239,3562 3239,3566 3227,3566 3227,3570 3195,3570 3195,3574 3069,3574 3069,3578 3033,3578 3033,3582 3029,3582 3029,3586 3025,3586 3025,3594 3021,3594 3021,3618 3017,3618 3017,3934 3021,3934 3021,3938 3025,3938 3025,3942 3033,3942 3033,3946 3116,3946 3116,3942 3235,3942 3235,3938 3286,3938 3286,3934 3302,3934 3302,3930 3314,3930 3314,3926 3338,3926 3338,3922 3393,3922 3393,3918 3409,3918 3409,3914 3417,3914 3417,3910 3429,3910 3429,3906 3464,3906 3464,3903 3488,3903 3488,3899 3496,3899 3496,3895 3504,3895 3504,3891 3520,3891 3520,3887 3551,3887 3551,3883 3563,3883 3563,3879 3571,3879 3571,3875 3579,3875 3579,3871 3603,3871 3603,3867 3622,3867 3622,3863 3630,3863 3630,3859 3634,3859 3634,3855 3646,3855 3646,3851 3670,3851 3670,3847 3682,3847 3682,3843 3686,3843 3686,3839 3694,3839 3694,3835 3713,3835 3713,3831 3729,3831 3729,3827 3733,3827 3733,3823 3737,3823 3737,3819 3749,3819 3749,3816 3769,3816 3769,3812 3777,3812 3777,3808 3781,3808 3781,3804 3788,3804 3788,3800 3804,3800 3804,3796 3820,3796 3820,3792 3824,3792 3824,3788 3828,3788 3828,3784 3836,3784 3836,3780 3852,3780 3852,3776 3860,3776 3860,3772 3868,3772 3868,3768 3871,3768 3871,3764 3883,3764 3883,3760 3895,3760 3895,3756 3903,3756 3903,3752 3907,3752 3907,3748 3911,3748 3911,3744 3927,3744 3927,3740 3935,3740 3935,3736 3939,3736 3939,3732 3943,3732 3943,3729 3954,3729 3954,3725 3966,3725 3966,3721 3974,3721 3974,3713 3982,3713 3982,3709 3994,3709 3994,3705 4002,3705 4002,3701 4006,3701 4006,3697 4014,3697 4014,3693 4022,3693 4022,3689 4030,3689 4030,3685 4034,3685 4034,3681 4038,3681 4038,3677 4045,3677 4045,3673 4057,3673 4057,3669 4065,3669 4065,3661 4069,3661 4069,3657 4081,3657 4081,3653 4089,3653 4089,3649 4097,3649 4097,3646 4101,3646 4101,3642 4105,3642 4105,3638 4113,3638 4113,3634 4121,3634 4121,3630 4125,3630 4125,3622 4136,3622 4136,3618 4144,3618 4144,3614 4152,3614 4152,3610 4156,3610 4156,3606 4160,3606 4160,3602 4164,3602 4164,3598 4172,3598 4172,3594 4176,3594 4176,3590 4180,3590 4180,3586 4188,3586 4188,3582 4196,3582 4196,3578 4200,3578 4200,3574 4204,3574 4204,3570 4211,3570 4211,3566 4219,3566 4219,3562 4223,3562 4223,3559 4227,3559 4227,3555 4231,3555 4231,3551 4235,3551 4235,3547 4243,3547 4243,3543 4247,3543 4247,3539 4251,3539 4251,3535 4255,3535 4255,3531 4263,3531 4263,3527 4271,3527 4271,3519 4275,3519 4275,3515 4283,3515 4283,3511 4291,3511 4291,3507 4295,3507 4295,3503 4298,3503 4298,3499 4302,3499 4302,3495 4306,3495 4306,3491 4314,3491 4314,3487 4318,3487 4318,3479 4322,3479 4322,3475 4330,3475 4330,3472 4334,3472 4334,3468 4338,3468 4338,3464 4342,3464 4342,3460 4350,3460 4350,3456 4354,3456 4354,3452 4358,3452 4358,3444 4366,3444 4366,3440 4374,3440 4374,3432 4378,3432 4378,3428 4382,3428 4382,3424 4389,3424 4389,3420 4393,3420 4393,3416 4397,3416 4397,3412 4401,3412 4401,3408 4405,3408 4405,3404 4409,3404 4409,3400 4413,3400 4413,3396 4417,3396 4417,3392 4421,3392 4421,3388 4429,3388 4429,3381 4433,3381 4433,3377 4437,3377 4437,3373 4445,3373 4445,3369 4449,3369 4449,3361 4453,3361 4453,3357 4457,3357 4457,3353 4461,3353 4461,3349 4465,3349 4465,3345 4468,3345 4468,3341 4472,3341 4472,3337 4476,3337 4476,3333 4480,3333 4480,3329 4484,3329 4484,3321 4488,3321 4488,3317 4496,3317 4496,3313 4500,3313 4500,3305 4504,3305 4504,3302 4512,3302 4512,3298 4516,3298 4516,3286 4520,3286 4520,3282 4528,3282 4528,3278 4532,3278 4532,3274 4536,3274 4536,3266 4540,3266 4540,3262 4544,3262 4544,3258 4548,3258 4548,3254 4552,3254 4552,3246 4555,3246 4555,3242 4563,3242 4563,3238 4567,3238 4567,3230 4571,3230 4571,3226 4575,3226 4575,3222 4579,3222 4579,3218 4583,3218 4583,3215 4587,3215 4587,3207 4591,3207 4591,3199 4595,3199 4595,3195 4599,3195 4599,3191 4603,3191 4603,3187 4607,3187 4607,3175 4615,3175 4615,3171 4619,3171 4619,3167 4623,3167 4623,3159 4627,3159 4627,3155 4631,3155 4631,3151 4635,3151 4635,3147 4639,3147 4639,3143 4642,3143 4642,3131 4646,3131 4646,3128 4650,3128 4650,3124 4654,3124 4654,3120 4658,3120 4658,3108 4662,3108 4662,3104 4666,3104 4666,3100 4670,3100 4670,3096 4674,3096 4674,3092 4678,3092 4678,3084 4682,3084 4682,3076 4690,3076 4690,3068 4694,3068 4694,3060 4698,3060 4698,3048 4706,3048 4706,3045 4710,3045 4710,3041 4714,3041 4714,3029 4718,3029 4718,3021 4722,3021 4722,3017 4725,3017 4725,3013 4729,3013 4729,3001 4733,3001 4733,2993 4741,2993 4741,2989 4745,2989 4745,2981 4749,2981 4749,2969 4753,2969 4753,2961 4757,2961 4757,2958 4761,2958 4761,2954 4765,2954 4765,2946 4769,2946 4769,2934 4773,2934 4773,2930 4777,2930 4777,2926 4781,2926 4781,2918 4785,2918 4785,2906 4789,2906 4789,2898 4797,2898 4797,2890 4801,2890 4801,2878 4805,2878 4805,2867 4809,2867 4809,2863 4812,2863 4812,2859 4816,2859 4816,2851 4820,2851 4820,2835 4824,2835 4824,2831 4828,2831 4828,2827 4832,2827 4832,2823 4836,2823 4836,2807 4840,2807 4840,2795 4844,2795 4844,2791 4848,2791 4848,2784 4852,2784 4852,2776 4856,2776 4856,2760 4860,2760 4860,2752 4864,2752 4864,2748 4868,2748 4868,2740 4872,2740 4872,2728 4876,2728 4876,2712 4880,2712 4880,2708 4884,2708 4884,2701 4888,2701 4888,2693 4892,2693 4892,2673 4896,2673 4896,2661 4899,2661 4899,2657 4903,2657 4903,2653 4907,2653 4907,2637 4911,2637 4911,2617 4915,2617 4915,2610 4919,2610 4919,2606 4923,2606 4923,2594 4927,2594 4927,2570 4931,2570 4931,2558 4935,2558 4935,2554 4939,2554 4939,2546 4943,2546 4943,2527 4947,2527 4947,2503 4951,2503 4951,2495 4955,2495 4955,2487 4959,2487 4959,2475 4963,2475 4963,2444 4967,2444 4967,2428 4971,2428 4971,2420 4975,2420 4975,2412 4979,2412 4979,2384 4983,2384 4983,2353 4986,2353 4986,2341 4990,2341 4990,2333 4994,2333 4994,2313 4998,2313 4998,2258 5002,2258 5002,2234 5006,2234 5006,2222 5010,2222 5010,2202 5014,2202 5014,2139 5018,2139 5018,2013 5022,2013 5022,1922 5018,1922 5018,1807 5014,1807 5014,1744 5010,1744 5010,1724 5006,1724 5006,1712 5002,1712 5002,1688 4998,1688 4998,1637 4994,1637 4994,1613 4990,1613 4990,1605 4986,1605 4986,1593 4983,1593 4983,1562 4979,1562 4979,1534 4975,1534 4975,1526 4971,1526 4971,1522 4967,1522 4967,1502 4963,1502 4963,1471 4959,1471 4959,1459 4955,1459 4955,1451 4951,1451 4951,1447 4947,1447 4947,1423 4943,1423 4943,1400 4939,1400 4939,1392 4935,1392 4935,1388 4931,1388 4931,1380 4927,1380 4927,1352 4923,1352 4923,1340 4919,1340 4919,1336 4915,1336 4915,1329 4911,1329 4911,1309 4907,1309 4907,1297 4903,1297 4903,1289 4899,1289 4899,1285 4896,1285 4896,1273 4892,1273 4892,1253 4888,1253 4888,1245 4884,1245 4884,1242 4880,1242 4880,1238 4876,1238 4876,1218 4872,1218 4872,1206 4868,1206 4868,1198 4860,1198 4860,1186 4856,1186 4856,1170 4852,1170 4852,1162 4848,1162 4848,1159 4844,1159 4844,1155 4840,1155 4840,1139 4836,1139 4836,1127 4832,1127 4832,1123 4828,1123 4828,1119 4824,1119 4824,1111 4820,1111 4820,1095 4816,1095 4816,1087 4812,1087 4812,1083 4809,1083 4809,1079 4805,1079 4805,1072 4801,1072 4801,1056 4797,1056 4797,1052 4793,1052 4793,1048 4789,1048 4789,1040 4785,1040 4785,1028 4781,1028 4781,1020 4773,1020 4773,1012 4769,1012 4769,1000 4765,1000 4765,992 4761,992 4761,988 4757,988 4757,985 4753,985 4753,981 4749,981 4749,965 4745,965 4745,957 4741,957 4741,953 4733,953 4733,945 4729,945 4729,933 4725,933 4725,929 4722,929 4722,925 4718,925 4718,921 4714,921 4714,909 4710,909 4710,901 4706,901 4706,898 4698,898 4698,890 4694,890 4694,878 4690,878 4690,874 4686,874 4686,870 4682,870 4682,866 4678,866 4678,858 4674,858 4674,850 4670,850 4670,846 4666,846 4666,842 4662,842 4662,838 4658,838 4658,826 4654,826 4654,822 4646,822 4646,815 4642,815 4642,807 4639,807 4639,799 4635,799 4635,795 4631,795 4631,791 4627,791 4627,787 4623,787 4623,779 4619,779 4619,775 4615,775 4615,771 4607,771 4607,759 4603,759 4603,755 4599,755 4599,751 4595,751 4595,747 4591,747 4591,739 4587,739 4587,735 4583,735 4583,731 4579,731 4579,728 4575,728 4575,720 4571,720 4571,716 4567,716 4567,708 4563,708 4563,704 4555,704 4555,700 4552,700 4552,692 4548,692 4548,688 4544,688 4544,684 4536,684 4536,676 4532,676 4532,668 4528,668 4528,664 4520,664 4520,660 4516,660 4516,652 4512,652 4512,648 4508,648 4508,644 4500,644 4500,633 4496,633 4496,629 4488,629 4488,625 4484,625 4484,621 4480,621 4480,613 4476,613 4476,609 4468,609 4468,605 4465,605 4465,597 4461,597 4461,593 4457,593 4457,589 4449,589 4449,581 4445,581 4445,577 4441,577 4441,573 4437,573 4437,569 4433,569 4433,565 4429,565 4429,561 4425,561 4425,557 4417,557 4417,554 4413,554 4413,550 4409,550 4409,542 4405,542 4405,538 4393,538 4393,530 4389,530 4389,522 4378,522 4378,518 4374,518 4374,510 4370,510 4370,506 4362,506 4362,502 4358,502 4358,498 4354,498 4354,490 4346,490 4346,486 4338,486 4338,478 4334,478 4334,474 4330,474 4330,471 4322,471 4322,467 4318,467 4318,463 4314,463 4314,455 4306,455 4306,451 4302,451 4302,447 4295,447 4295,439 4287,439 4287,435 4283,435 4283,431 4275,431 4275,427 4271,427 4271,423 4267,423 4267,419 4263,419 4263,415 4251,415 4251,411 4247,411 4247,403 4243,403 4243,399 4235,399 4235,395 4227,395 4227,387 4223,387 4223,384 4215,384 4215,380 4208,380 4208,376 4200,376 4200,368 4196,368 4196,364 4184,364 4184,360 4176,360 4176,352 4172,352 4172,348 4164,348 4164,344 4160,344 4160,340 4152,340 4152,336 4148,336 4148,332 4144,332 4144,328 4136,328 4136,324 4125,324 4125,320 4121,320 4121,312 4113,312 4113,308 4105,308 4105,304 4097,304 4097,300 4093,300 4093,297 4089,297 4089,293 4077,293 4077,289 4069,289 4069,285 4065,285 4065,281 4061,281 4061,277 4057,277 4057,273 4045,273 4045,269 4038,269 4038,265 4034,265 4034,261 4030,261 4030,257 4022,257 4022,253 4010,253 4010,249 4002,249 4002,245 3998,245 3998,241 3994,241 3994,237 3982,237 3982,233 3974,233 3974,229 3970,229 3970,225 3966,225 3966,221 3954,221 3954,217 3943,217 3943,214 3939,214 3939,210 3931,210 3931,206 3927,206 3927,202 3911,202 3911,198 3903,198 3903,194 3899,194 3899,190 3895,190 3895,186 3883,186 3883,182 3868,182 3868,178 3864,178 3864,174 3860,174 3860,170 3852,170 3852,166 3836,166 3836,162 3824,162 3824,158 3820,158 3820,154 3812,154 3812,150 3800,150 3800,146 3784,146 3784,142 3777,142 3777,138 3773,138 3773,134 3765,134 3765,130 3749,130 3749,127 3733,127 3733,123 3729,123 3729,119 3725,119 3725,115 3713,115 3713,111 3690,111 3690,107 3682,107 3682,103 3678,103 3678,99 3670,99 3670,95 3642,95 3642,91 3626,91 3626,87 3622,87 3622,83 3618,83 3618,79 3599,79 3599,75 3575,75 3575,71 3563,71 3563,67 3559,67 3559,63 3547,63 3547,59 3520,59 3520,55 3496,55 3496,51 3488,51 3488,47 3480,47 3480,43 3464,43 3464,40 3421,40 3421,36 3405,36 3405,32 3401,32 3401,28 3385,28 3385,24 3338,24 3338,20 3302,20 3302,16 3286,16 3286,12 3270,12 3270,8 3231,8 3231,4 3073,4 3073,0 3017,0 "/>
  <polygon class="fil0" points="3646,996 3551,996 3551,1000 3057,1000 3057,1004 3049,1004 3049,1000 3002,1000 3002,1004 2745,1004 2745,1008 2741,1008 2741,1012 2737,1012 2737,1020 2733,1020 2733,1024 2729,1024 2729,1032 2725,1032 2725,1056 2721,1056 2721,1087 2717,1087 2717,1099 2713,1099 2713,1103 2709,1103 2709,1119 2705,1119 2705,1155 2701,1155 2701,1170 2697,1170 2697,1174 2693,1174 2693,1186 2689,1186 2689,1210 2685,1210 2685,1238 2681,1238 2681,1249 2677,1249 2677,1257 2673,1257 2673,1269 2669,1269 2669,1305 2666,1305 2666,1325 2662,1325 2662,1329 2658,1329 2658,1336 2654,1336 2654,1360 2650,1360 2650,1396 2646,1396 2646,1404 2642,1404 2642,1408 2638,1408 2638,1423 2634,1423 2634,1455 2630,1455 2630,1475 2626,1475 2626,1479 2622,1479 2622,1491 2618,1491 2618,1510 2614,1510 2614,1542 2610,1542 2610,1554 2606,1554 2606,1562 2602,1562 2602,1574 2598,1574 2598,1609 2594,1609 2594,1629 2590,1629 2590,1633 2586,1633 2586,1641 2582,1641 2582,1665 2579,1665 2579,1696 2575,1696 2575,1704 2571,1704 2571,1712 2567,1712 2567,1728 2563,1728 2563,1759 2559,1759 2559,1779 2555,1779 2555,1787 2551,1787 2551,1795 2547,1795 2547,1815 2543,1815 2543,1846 2539,1846 2539,1858 2535,1858 2535,1866 2531,1866 2531,1878 2527,1878 2527,1914 2523,1914 2523,1930 2519,1930 2519,1937 2515,1937 2515,1945 2511,1945 2511,1969 2507,1969 2507,2001 2503,2001 2503,2013 2499,2013 2499,2016 2495,2016 2495,2032 2492,2032 2492,2060 2488,2060 2488,2084 2484,2084 2484,2092 2480,2092 2480,2100 2476,2100 2476,2115 2472,2115 2472,2151 2468,2151 2468,2163 2464,2163 2464,2171 2460,2171 2460,2183 2456,2183 2456,2214 2452,2214 2452,2238 2448,2238 2448,2242 2444,2242 2444,2250 2440,2250 2440,2274 2436,2274 2436,2305 2432,2305 2432,2313 2428,2313 2428,2321 2424,2321 2424,2345 2428,2345 2428,2349 2432,2349 2432,2353 2539,2353 2539,2357 2701,2357 2701,2360 2780,2360 2780,2364 2843,2364 2843,2368 2847,2368 2847,2392 2843,2392 2843,2400 2836,2400 2836,2408 2832,2408 2832,2424 2828,2424 2828,2440 2824,2440 2824,2444 2820,2444 2820,2451 2816,2451 2816,2459 2812,2459 2812,2475 2808,2475 2808,2487 2804,2487 2804,2491 2800,2491 2800,2499 2796,2499 2796,2511 2792,2511 2792,2531 2788,2531 2788,2534 2784,2534 2784,2538 2780,2538 2780,2546 2776,2546 2776,2566 2772,2566 2772,2578 2768,2578 2768,2582 2764,2582 2764,2586 2760,2586 2760,2602 2756,2602 2756,2617 2752,2617 2752,2625 2749,2625 2749,2629 2745,2629 2745,2637 2741,2637 2741,2653 2737,2653 2737,2669 2729,2669 2729,2677 2725,2677 2725,2689 2721,2689 2721,2708 2717,2708 2717,2712 2713,2712 2713,2716 2709,2716 2709,2724 2705,2724 2705,2744 2701,2744 2701,2756 2697,2756 2697,2760 2693,2760 2693,2768 2689,2768 2689,2780 2685,2780 2685,2795 2681,2795 2681,2803 2677,2803 2677,2807 2673,2807 2673,2815 2669,2815 2669,2831 2666,2831 2666,2847 2658,2847 2658,2855 2654,2855 2654,2867 2650,2867 2650,2886 2646,2886 2646,2894 2638,2894 2638,2906 2634,2906 2634,2922 2630,2922 2630,2934 2626,2934 2626,2938 2622,2938 2622,2946 2618,2946 2618,2958 2614,2958 2614,2973 2610,2973 2610,2981 2606,2981 2606,2985 2602,2985 2602,2993 2598,2993 2598,3013 2594,3013 2594,3025 2590,3025 2590,3029 2586,3029 2586,3033 2582,3033 2582,3045 2579,3045 2579,3064 2575,3064 2575,3072 2571,3072 2571,3076 2567,3076 2567,3084 2563,3084 2563,3100 2559,3100 2559,3116 2555,3116 2555,3120 2551,3120 2551,3124 2547,3124 2547,3135 2543,3135 2543,3151 2539,3151 2539,3163 2531,3163 2531,3171 2527,3171 2527,3191 2523,3191 2523,3203 2519,3203 2519,3207 2515,3207 2515,3211 2511,3211 2511,3222 2507,3222 2507,3242 2503,3242 2503,3250 2499,3250 2499,3254 2495,3254 2495,3262 2492,3262 2492,3274 2488,3274 2488,3290 2484,3290 2484,3294 2480,3294 2480,3298 2476,3298 2476,3309 2472,3309 2472,3325 2476,3325 2476,3333 2492,3333 2492,3329 2495,3329 2495,3325 2499,3325 2499,3317 2507,3317 2507,3313 2511,3313 2511,3309 2515,3309 2515,3302 2519,3302 2519,3298 2523,3298 2523,3294 2527,3294 2527,3290 2531,3290 2531,3286 2535,3286 2535,3278 2539,3278 2539,3270 2543,3270 2543,3266 2551,3266 2551,3258 2555,3258 2555,3250 2559,3250 2559,3246 2567,3246 2567,3238 2571,3238 2571,3230 2575,3230 2575,3226 2582,3226 2582,3222 2586,3222 2586,3215 2590,3215 2590,3207 2598,3207 2598,3203 2602,3203 2602,3195 2606,3195 2606,3191 2610,3191 2610,3187 2614,3187 2614,3183 2618,3183 2618,3179 2622,3179 2622,3171 2626,3171 2626,3163 2630,3163 2630,3159 2638,3159 2638,3151 2642,3151 2642,3143 2646,3143 2646,3139 2650,3139 2650,3135 2658,3135 2658,3128 2662,3128 2662,3120 2666,3120 2666,3116 2673,3116 2673,3108 2677,3108 2677,3104 2681,3104 2681,3100 2685,3100 2685,3096 2689,3096 2689,3092 2693,3092 2693,3084 2697,3084 2697,3080 2701,3080 2701,3076 2705,3076 2705,3072 2709,3072 2709,3064 2713,3064 2713,3060 2717,3060 2717,3052 2721,3052 2721,3048 2729,3048 2729,3041 2733,3041 2733,3033 2737,3033 2737,3029 2745,3029 2745,3025 2749,3025 2749,3013 2752,3013 2752,3009 2760,3009 2760,3005 2764,3005 2764,2997 2768,2997 2768,2993 2772,2993 2772,2989 2776,2989 2776,2985 2780,2985 2780,2981 2784,2981 2784,2973 2788,2973 2788,2965 2792,2965 2792,2961 2800,2961 2800,2954 2804,2954 2804,2946 2808,2946 2808,2942 2816,2942 2816,2938 2820,2938 2820,2926 2824,2926 2824,2922 2832,2922 2832,2918 2836,2918 2836,2910 2839,2910 2839,2906 2843,2906 2843,2902 2847,2902 2847,2898 2851,2898 2851,2894 2855,2894 2855,2886 2859,2886 2859,2882 2863,2882 2863,2878 2867,2878 2867,2874 2871,2874 2871,2871 2875,2871 2875,2863 2879,2863 2879,2855 2887,2855 2887,2851 2891,2851 2891,2843 2895,2843 2895,2835 2903,2835 2903,2831 2907,2831 2907,2823 2911,2823 2911,2815 2919,2815 2919,2811 2923,2811 2923,2807 2926,2807 2926,2799 2930,2799 2930,2795 2934,2795 2934,2791 2938,2791 2938,2787 2942,2787 2942,2784 2946,2784 2946,2776 2950,2776 2950,2772 2954,2772 2954,2768 2958,2768 2958,2764 2962,2764 2962,2756 2966,2756 2966,2748 2974,2748 2974,2744 2978,2744 2978,2740 2982,2740 2982,2728 2990,2728 2990,2724 2994,2724 2994,2720 2998,2720 2998,2712 3002,2712 3002,2708 3006,2708 3006,2704 3010,2704 3010,2701 3013,2701 3013,2697 3017,2697 3017,2689 3021,2689 3021,2685 3025,2685 3025,2681 3029,2681 3029,2677 3033,2677 3033,2673 3037,2673 3037,2665 3041,2665 3041,2661 3045,2661 3045,2657 3049,2657 3049,2653 3053,2653 3053,2641 3061,2641 3061,2637 3065,2637 3065,2633 3069,2633 3069,2625 3073,2625 3073,2621 3077,2621 3077,2617 3081,2617 3081,2614 3085,2614 3085,2610 3089,2610 3089,2602 3093,2602 3093,2598 3100,2598 3100,2590 3104,2590 3104,2586 3108,2586 3108,2578 3112,2578 3112,2574 3116,2574 3116,2570 3120,2570 3120,2566 3124,2566 3124,2558 3128,2558 3128,2554 3132,2554 3132,2550 3136,2550 3136,2546 3140,2546 3140,2538 3144,2538 3144,2531 3152,2531 3152,2527 3156,2527 3156,2523 3160,2523 3160,2515 3164,2515 3164,2511 3172,2511 3172,2503 3176,2503 3176,2499 3180,2499 3180,2491 3183,2491 3183,2487 3187,2487 3187,2483 3191,2483 3191,2479 3195,2479 3195,2471 3199,2471 3199,2467 3203,2467 3203,2463 3207,2463 3207,2459 3211,2459 3211,2455 3215,2455 3215,2444 3223,2444 3223,2440 3227,2440 3227,2436 3231,2436 3231,2428 3235,2428 3235,2424 3239,2424 3239,2420 3243,2420 3243,2416 3247,2416 3247,2408 3251,2408 3251,2404 3255,2404 3255,2400 3263,2400 3263,2392 3267,2392 3267,2388 3270,2388 3270,2380 3274,2380 3274,2376 3278,2376 3278,2372 3282,2372 3282,2368 3286,2368 3286,2357 3294,2357 3294,2353 3298,2353 3298,2349 3302,2349 3302,2341 3306,2341 3306,2337 3310,2337 3310,2333 3314,2333 3314,2329 3318,2329 3318,2321 3322,2321 3322,2317 3326,2317 3326,2313 3334,2313 3334,2305 3338,2305 3338,2297 3342,2297 3342,2293 3350,2293 3350,2285 3353,2285 3353,2281 3357,2281 3357,2274 3361,2274 3361,2270 3365,2270 3365,2266 3369,2266 3369,2262 3373,2262 3373,2254 3377,2254 3377,2246 3385,2246 3385,2242 3389,2242 3389,2238 3393,2238 3393,2230 3397,2230 3397,2226 3401,2226 3401,2222 3405,2222 3405,2218 3409,2218 3409,2210 3413,2210 3413,2206 3421,2206 3421,2202 3425,2202 3425,2194 3429,2194 3429,2187 3433,2187 3433,2183 3437,2183 3437,2179 3440,2179 3440,2175 3444,2175 3444,2171 3448,2171 3448,2159 3456,2159 3456,2155 3460,2155 3460,2151 3464,2151 3464,2143 3468,2143 3468,2139 3472,2139 3472,2135 3476,2135 3476,2131 3480,2131 3480,2123 3484,2123 3484,2119 3488,2119 3488,2115 3496,2115 3496,2107 3500,2107 3500,2100 3508,2100 3508,2096 3512,2096 3512,2088 3516,2088 3516,2084 3520,2084 3520,2076 3524,2076 3524,2072 3527,2072 3527,2068 3531,2068 3531,2064 3535,2064 3535,2056 3539,2056 3539,2052 3543,2052 3543,2048 3547,2048 3547,2044 3551,2044 3551,2036 3555,2036 3555,2032 3559,2032 3559,2028 3567,2028 3567,2020 3571,2020 3571,2013 3575,2013 3575,2009 3583,2009 3583,2001 3587,2001 3587,1997 3591,1997 3591,1989 3599,1989 3599,1981 3603,1981 3603,1977 3607,1977 3607,1973 3610,1973 3610,1965 3614,1965 3614,1961 3622,1961 3622,1953 3626,1953 3626,1945 3630,1945 3630,1941 3638,1941 3638,1933 3642,1933 3642,1926 3646,1926 3646,1922 3654,1922 3654,1918 3658,1918 3658,1910 3662,1910 3662,1902 3670,1902 3670,1898 3674,1898 3674,1890 3678,1890 3678,1886 3682,1886 3682,1878 3686,1878 3686,1874 3694,1874 3694,1866 3697,1866 3697,1858 3701,1858 3701,1854 3709,1854 3709,1846 3713,1846 3713,1839 3717,1839 3717,1835 3725,1835 3725,1831 3729,1831 3729,1819 3733,1819 3733,1815 3741,1815 3741,1811 3745,1811 3745,1803 3749,1803 3749,1799 3753,1799 3753,1795 3757,1795 3757,1791 3761,1791 3761,1787 3765,1787 3765,1779 3769,1779 3769,1775 3773,1775 3773,1767 3781,1767 3781,1763 3784,1763 3784,1759 3788,1759 3788,1752 3792,1752 3792,1748 3796,1748 3796,1728 3792,1728 3792,1724 3788,1724 3788,1720 3745,1720 3745,1724 3690,1724 3690,1728 3662,1728 3662,1732 3607,1732 3607,1736 3417,1736 3417,1740 3350,1740 3350,1744 3342,1744 3342,1736 3338,1736 3338,1732 3342,1732 3342,1728 3346,1728 3346,1724 3350,1724 3350,1720 3353,1720 3353,1716 3357,1716 3357,1700 3361,1700 3361,1696 3365,1696 3365,1692 3369,1692 3369,1688 3373,1688 3373,1673 3377,1673 3377,1669 3381,1669 3381,1665 3385,1665 3385,1657 3389,1657 3389,1649 3393,1649 3393,1637 3397,1637 3397,1633 3401,1633 3401,1629 3405,1629 3405,1621 3409,1621 3409,1609 3413,1609 3413,1601 3417,1601 3417,1597 3421,1597 3421,1593 3425,1593 3425,1586 3429,1586 3429,1574 3433,1574 3433,1570 3437,1570 3437,1566 3440,1566 3440,1562 3444,1562 3444,1550 3448,1550 3448,1538 3452,1538 3452,1534 3456,1534 3456,1530 3460,1530 3460,1522 3464,1522 3464,1510 3468,1510 3468,1506 3472,1506 3472,1499 3476,1499 3476,1495 3480,1495 3480,1483 3484,1483 3484,1475 3488,1475 3488,1471 3492,1471 3492,1467 3496,1467 3496,1459 3500,1459 3500,1443 3504,1443 3504,1439 3512,1439 3512,1431 3516,1431 3516,1419 3520,1419 3520,1408 3527,1408 3527,1404 3531,1404 3531,1396 3535,1396 3535,1384 3539,1384 3539,1376 3543,1376 3543,1372 3547,1372 3547,1368 3551,1368 3551,1356 3555,1356 3555,1344 3559,1344 3559,1340 3563,1340 3563,1336 3567,1336 3567,1329 3571,1329 3571,1317 3575,1317 3575,1313 3579,1313 3579,1309 3583,1309 3583,1301 3587,1301 3587,1293 3591,1293 3591,1281 3595,1281 3595,1277 3599,1277 3599,1273 3603,1273 3603,1265 3607,1265 3607,1253 3610,1253 3610,1245 3618,1245 3618,1242 3622,1242 3622,1230 3626,1230 3626,1218 3630,1218 3630,1214 3634,1214 3634,1210 3638,1210 3638,1202 3642,1202 3642,1190 3646,1190 3646,1186 3650,1186 3650,1182 3654,1182 3654,1174 3658,1174 3658,1162 3662,1162 3662,1155 3666,1155 3666,1151 3670,1151 3670,1147 3674,1147 3674,1139 3678,1139 3678,1127 3682,1127 3682,1119 3686,1119 3686,1115 3690,1115 3690,1111 3694,1111 3694,1103 3697,1103 3697,1087 3701,1087 3701,1083 3709,1083 3709,1075 3713,1075 3713,1064 3717,1064 3717,1056 3721,1056 3721,1052 3725,1052 3725,1048 3729,1048 3729,1036 3733,1036 3733,1028 3737,1028 3737,1024 3741,1024 3741,1020 3745,1020 3745,1012 3741,1012 3741,1000 3737,1000 3737,996 3725,996 3725,992 3705,992 3705,996 3650,996 3650,992 3646,992 "/>
  <polygon class="fil0" points="1511,2863 1479,2863 1479,2867 1452,2867 1452,2871 1432,2871 1432,2874 1416,2874 1416,2878 1400,2878 1400,2882 1384,2882 1384,2886 1373,2886 1373,2890 1361,2890 1361,2894 1345,2894 1345,2898 1337,2898 1337,2902 1325,2902 1325,2906 1317,2906 1317,2910 1305,2910 1305,2914 1297,2914 1297,2918 1290,2918 1290,2922 1282,2922 1282,2926 1270,2926 1270,2930 1266,2930 1266,2934 1258,2934 1258,2938 1250,2938 1250,2942 1242,2942 1242,2946 1234,2946 1234,2950 1226,2950 1226,2954 1222,2954 1222,2958 1214,2958 1214,2961 1210,2961 1210,2965 1203,2965 1203,2969 1195,2969 1195,2973 1191,2973 1191,2977 1183,2977 1183,2981 1179,2981 1179,2985 1175,2985 1175,2989 1167,2989 1167,2993 1163,2993 1163,2997 1155,2997 1155,3001 1151,3001 1151,3005 1147,3005 1147,3009 1143,3009 1143,3013 1135,3013 1135,3017 1131,3017 1131,3021 1127,3021 1127,3025 1123,3025 1123,3029 1120,3029 1120,3033 1112,3033 1112,3037 1108,3037 1108,3041 1104,3041 1104,3045 1100,3045 1100,3048 1096,3048 1096,3052 1092,3052 1092,3056 1088,3056 1088,3060 1084,3060 1084,3064 1080,3064 1080,3068 1076,3068 1076,3072 1072,3072 1072,3076 1068,3076 1068,3080 1064,3080 1064,3088 1060,3088 1060,3092 1056,3092 1056,3096 1052,3096 1052,3100 1048,3100 1048,3104 1044,3104 1044,3108 1040,3108 1040,3116 1037,3116 1037,3120 1033,3120 1033,3124 1029,3124 1029,3131 1025,3131 1025,3135 1021,3135 1021,3139 1017,3139 1017,3147 1013,3147 1013,3151 1009,3151 1009,3159 1005,3159 1005,3163 1001,3163 1001,3171 997,3171 997,3179 993,3179 993,3183 989,3183 989,3191 985,3191 985,3199 981,3199 981,3207 977,3207 977,3211 973,3211 973,3222 969,3222 969,3230 965,3230 965,3234 961,3234 961,3246 957,3246 957,3254 953,3254 953,3262 950,3262 950,3274 946,3274 946,3286 942,3286 942,3294 938,3294 938,3305 934,3305 934,3317 930,3317 930,3333 926,3333 926,3345 922,3345 922,3357 918,3357 918,3377 914,3377 914,3396 910,3396 910,3416 906,3416 906,3436 902,3436 902,3456 1305,3456 1305,3436 1309,3436 1309,3412 1313,3412 1313,3396 1317,3396 1317,3385 1321,3385 1321,3369 1325,3369 1325,3357 1329,3357 1329,3349 1333,3349 1333,3341 1337,3341 1337,3333 1341,3333 1341,3325 1345,3325 1345,3321 1349,3321 1349,3313 1353,3313 1353,3309 1357,3309 1357,3302 1361,3302 1361,3298 1365,3298 1365,3294 1369,3294 1369,3290 1373,3290 1373,3286 1377,3286 1377,3282 1380,3282 1380,3278 1384,3278 1384,3274 1392,3274 1392,3270 1396,3270 1396,3266 1400,3266 1400,3262 1408,3262 1408,3258 1416,3258 1416,3254 1424,3254 1424,3250 1428,3250 1428,3246 1440,3246 1440,3242 1452,3242 1452,3238 1460,3238 1460,3234 1475,3234 1475,3230 1499,3230 1499,3226 1570,3226 1570,3230 1594,3230 1594,3234 1606,3234 1606,3238 1614,3238 1614,3242 1622,3242 1622,3246 1630,3246 1630,3250 1634,3250 1634,3254 1637,3254 1637,3258 1645,3258 1645,3262 1649,3262 1649,3266 1653,3266 1653,3274 1657,3274 1657,3278 1661,3278 1661,3286 1665,3286 1665,3294 1669,3294 1669,3302 1673,3302 1673,3309 1677,3309 1677,3329 1681,3329 1681,3400 1677,3400 1677,3424 1673,3424 1673,3436 1669,3436 1669,3448 1665,3448 1665,3460 1661,3460 1661,3468 1657,3468 1657,3475 1653,3475 1653,3483 1649,3483 1649,3491 1645,3491 1645,3499 1641,3499 1641,3503 1637,3503 1637,3511 1634,3511 1634,3519 1630,3519 1630,3523 1626,3523 1626,3527 1622,3527 1622,3535 1618,3535 1618,3539 1614,3539 1614,3543 1610,3543 1610,3551 1606,3551 1606,3555 1602,3555 1602,3559 1598,3559 1598,3562 1594,3562 1594,3570 1590,3570 1590,3574 1586,3574 1586,3578 1582,3578 1582,3582 1578,3582 1578,3586 1574,3586 1574,3590 1570,3590 1570,3594 1566,3594 1566,3598 1562,3598 1562,3602 1558,3602 1558,3606 1554,3606 1554,3610 1551,3610 1551,3614 1547,3614 1547,3618 1543,3618 1543,3622 1539,3622 1539,3626 1535,3626 1535,3630 1531,3630 1531,3634 1527,3634 1527,3638 1523,3638 1523,3642 1519,3642 1519,3646 1515,3646 1515,3649 1511,3649 1511,3653 1507,3653 1507,3657 1503,3657 1503,3661 1499,3661 1499,3665 1495,3665 1495,3669 1491,3669 1491,3673 1483,3673 1483,3681 1479,3681 1479,3685 1471,3685 1471,3689 1467,3689 1467,3693 1464,3693 1464,3697 1460,3697 1460,3701 1456,3701 1456,3705 1452,3705 1452,3709 1448,3709 1448,3713 1444,3713 1444,3717 1440,3717 1440,3721 1436,3721 1436,3725 1432,3725 1432,3729 1428,3729 1428,3732 1424,3732 1424,3736 1420,3736 1420,3740 1416,3740 1416,3744 1412,3744 1412,3748 1408,3748 1408,3752 1404,3752 1404,3756 1400,3756 1400,3760 1396,3760 1396,3764 1392,3764 1392,3768 1388,3768 1388,3772 1384,3772 1384,3776 1380,3776 1380,3780 1377,3780 1377,3784 1369,3784 1369,3788 1365,3788 1365,3796 1357,3796 1357,3800 1353,3800 1353,3804 1349,3804 1349,3808 1345,3808 1345,3812 1341,3812 1341,3816 1337,3816 1337,3819 1333,3819 1333,3823 1329,3823 1329,3827 1325,3827 1325,3831 1321,3831 1321,3835 1317,3835 1317,3839 1313,3839 1313,3843 1309,3843 1309,3847 1305,3847 1305,3851 1301,3851 1301,3855 1297,3855 1297,3859 1294,3859 1294,3863 1290,3863 1290,3867 1286,3867 1286,3871 1282,3871 1282,3875 1278,3875 1278,3879 1274,3879 1274,3883 1270,3883 1270,3887 1266,3887 1266,3891 1262,3891 1262,3895 1254,3895 1254,3899 1250,3899 1250,3903 1246,3903 1246,3906 1242,3906 1242,3910 1238,3910 1238,3914 1234,3914 1234,3918 1230,3918 1230,3922 1226,3922 1226,3926 1222,3926 1222,3930 1218,3930 1218,3934 1214,3934 1214,3938 1210,3938 1210,3942 1207,3942 1207,3946 1203,3946 1203,3950 1199,3950 1199,3954 1195,3954 1195,3958 1191,3958 1191,3962 1187,3962 1187,3966 1183,3966 1183,3970 1179,3970 1179,3974 1175,3974 1175,3978 1171,3978 1171,3982 1167,3982 1167,3986 1163,3986 1163,3989 1159,3989 1159,3993 1155,3993 1155,3997 1147,3997 1147,4001 1143,4001 1143,4009 1135,4009 1135,4013 1131,4013 1131,4017 1127,4017 1127,4021 1123,4021 1123,4025 1120,4025 1120,4029 1116,4029 1116,4033 1112,4033 1112,4037 1108,4037 1108,4041 1104,4041 1104,4045 1100,4045 1100,4049 1096,4049 1096,4053 1092,4053 1092,4057 1088,4057 1088,4061 1084,4061 1084,4065 1080,4065 1080,4069 1076,4069 1076,4073 1072,4073 1072,4076 1068,4076 1068,4080 1064,4080 1064,4084 1060,4084 1060,4088 1056,4088 1056,4092 1052,4092 1052,4096 1048,4096 1048,4100 1044,4100 1044,4104 1040,4104 1040,4108 1033,4108 1033,4112 1029,4112 1029,4120 1021,4120 1021,4124 1017,4124 1017,4128 1013,4128 1013,4132 1009,4132 1009,4136 1005,4136 1005,4140 1001,4140 1001,4144 997,4144 997,4148 993,4148 993,4152 989,4152 989,4156 985,4156 985,4160 981,4160 981,4163 977,4163 977,4167 973,4167 973,4171 969,4171 969,4175 965,4175 965,4179 961,4179 961,4183 957,4183 957,4187 953,4187 953,4191 950,4191 950,4195 946,4195 946,4199 942,4199 942,4203 938,4203 938,4207 930,4207 930,4215 926,4215 926,4219 918,4219 918,4223 914,4223 914,4227 910,4227 910,4231 906,4231 906,4235 902,4235 902,4239 898,4239 898,4243 894,4243 894,4247 890,4247 890,4250 886,4250 886,4254 882,4254 882,4258 878,4258 878,4262 874,4262 874,4266 870,4266 870,4270 866,4270 866,4274 863,4274 863,4278 859,4278 859,4282 855,4282 855,4286 851,4286 851,4290 847,4290 847,4294 843,4294 843,4298 839,4298 839,4302 835,4302 835,4306 831,4306 831,4310 827,4310 827,4314 823,4314 823,4318 815,4318 815,4322 811,4322 811,4326 807,4326 807,4330 803,4330 803,4333 799,4333 799,4337 795,4337 795,4341 791,4341 791,4345 787,4345 787,4349 783,4349 783,4353 779,4353 779,4357 776,4357 776,4361 772,4361 772,4365 768,4365 768,4369 764,4369 764,4373 760,4373 760,4377 756,4377 756,4381 752,4381 752,4385 748,4385 748,4389 744,4389 744,4393 740,4393 740,4397 736,4397 736,4405 732,4405 732,4428 728,4428 728,4448 724,4448 724,4468 720,4468 720,4496 716,4496 716,4515 712,4515 712,4535 708,4535 708,4559 704,4559 704,4587 700,4587 700,4606 696,4606 696,4626 693,4626 693,4650 689,4650 689,4674 685,4674 685,4693 681,4693 681,4717 677,4717 677,4741 673,4741 673,4749 1843,4749 1843,4741 1847,4741 1847,4717 1851,4717 1851,4697 1855,4697 1855,4677 1859,4677 1859,4650 1863,4650 1863,4630 1867,4630 1867,4610 1871,4610 1871,4587 1875,4587 1875,4559 1879,4559 1879,4539 1883,4539 1883,4519 1887,4519 1887,4492 1891,4492 1891,4472 1895,4472 1895,4452 1898,4452 1898,4428 1902,4428 1902,4405 1906,4405 1906,4381 1258,4381 1258,4377 1262,4377 1262,4373 1270,4373 1270,4369 1274,4369 1274,4365 1278,4365 1278,4361 1282,4361 1282,4357 1286,4357 1286,4353 1290,4353 1290,4349 1294,4349 1294,4345 1297,4345 1297,4341 1301,4341 1301,4337 1305,4337 1305,4333 1309,4333 1309,4330 1313,4330 1313,4326 1317,4326 1317,4322 1321,4322 1321,4318 1325,4318 1325,4314 1329,4314 1329,4310 1333,4310 1333,4306 1337,4306 1337,4302 1341,4302 1341,4298 1345,4298 1345,4294 1349,4294 1349,4290 1353,4290 1353,4286 1357,4286 1357,4282 1361,4282 1361,4278 1365,4278 1365,4274 1369,4274 1369,4270 1377,4270 1377,4262 1384,4262 1384,4258 1388,4258 1388,4254 1392,4254 1392,4250 1396,4250 1396,4247 1400,4247 1400,4243 1404,4243 1404,4239 1408,4239 1408,4235 1412,4235 1412,4231 1416,4231 1416,4227 1420,4227 1420,4223 1424,4223 1424,4219 1428,4219 1428,4215 1432,4215 1432,4211 1436,4211 1436,4207 1440,4207 1440,4203 1444,4203 1444,4199 1448,4199 1448,4195 1452,4195 1452,4191 1456,4191 1456,4187 1460,4187 1460,4183 1464,4183 1464,4179 1467,4179 1467,4175 1471,4175 1471,4171 1475,4171 1475,4167 1479,4167 1479,4163 1487,4163 1487,4160 1491,4160 1491,4156 1495,4156 1495,4152 1499,4152 1499,4148 1503,4148 1503,4144 1507,4144 1507,4140 1511,4140 1511,4136 1515,4136 1515,4132 1519,4132 1519,4128 1523,4128 1523,4124 1527,4124 1527,4120 1531,4120 1531,4116 1535,4116 1535,4112 1539,4112 1539,4108 1543,4108 1543,4104 1547,4104 1547,4100 1551,4100 1551,4096 1554,4096 1554,4092 1558,4092 1558,4088 1562,4088 1562,4084 1566,4084 1566,4080 1570,4080 1570,4076 1574,4076 1574,4073 1578,4073 1578,4069 1582,4069 1582,4065 1590,4065 1590,4061 1594,4061 1594,4053 1602,4053 1602,4049 1606,4049 1606,4045 1610,4045 1610,4041 1614,4041 1614,4037 1618,4037 1618,4033 1622,4033 1622,4029 1626,4029 1626,4025 1630,4025 1630,4021 1634,4021 1634,4017 1637,4017 1637,4013 1641,4013 1641,4009 1645,4009 1645,4005 1649,4005 1649,4001 1653,4001 1653,3997 1657,3997 1657,3993 1661,3993 1661,3989 1665,3989 1665,3986 1669,3986 1669,3982 1673,3982 1673,3978 1677,3978 1677,3974 1681,3974 1681,3970 1685,3970 1685,3966 1689,3966 1689,3962 1693,3962 1693,3958 1697,3958 1697,3954 1705,3954 1705,3950 1709,3950 1709,3946 1713,3946 1713,3942 1717,3942 1717,3938 1721,3938 1721,3934 1724,3934 1724,3930 1728,3930 1728,3926 1732,3926 1732,3922 1736,3922 1736,3918 1740,3918 1740,3914 1744,3914 1744,3910 1748,3910 1748,3906 1752,3906 1752,3903 1756,3903 1756,3899 1760,3899 1760,3895 1764,3895 1764,3891 1768,3891 1768,3887 1772,3887 1772,3883 1776,3883 1776,3879 1780,3879 1780,3875 1784,3875 1784,3871 1788,3871 1788,3867 1792,3867 1792,3863 1796,3863 1796,3859 1800,3859 1800,3855 1804,3855 1804,3851 1808,3851 1808,3847 1815,3847 1815,3839 1819,3839 1819,3835 1827,3835 1827,3831 1831,3831 1831,3823 1839,3823 1839,3819 1843,3819 1843,3812 1847,3812 1847,3808 1855,3808 1855,3800 1859,3800 1859,3796 1863,3796 1863,3792 1867,3792 1867,3788 1871,3788 1871,3784 1875,3784 1875,3780 1879,3780 1879,3776 1883,3776 1883,3772 1887,3772 1887,3768 1891,3768 1891,3764 1895,3764 1895,3760 1898,3760 1898,3756 1902,3756 1902,3752 1906,3752 1906,3748 1910,3748 1910,3744 1914,3744 1914,3740 1918,3740 1918,3732 1922,3732 1922,3729 1926,3729 1926,3725 1930,3725 1930,3721 1934,3721 1934,3717 1938,3717 1938,3713 1942,3713 1942,3705 1946,3705 1946,3701 1950,3701 1950,3697 1954,3697 1954,3693 1958,3693 1958,3685 1962,3685 1962,3681 1966,3681 1966,3677 1970,3677 1970,3673 1974,3673 1974,3665 1978,3665 1978,3661 1981,3661 1981,3657 1985,3657 1985,3649 1989,3649 1989,3646 1993,3646 1993,3638 1997,3638 1997,3634 2001,3634 2001,3626 2005,3626 2005,3622 2009,3622 2009,3614 2013,3614 2013,3606 2017,3606 2017,3598 2021,3598 2021,3594 2025,3594 2025,3586 2029,3586 2029,3574 2033,3574 2033,3566 2037,3566 2037,3559 2041,3559 2041,3547 2045,3547 2045,3539 2049,3539 2049,3527 2053,3527 2053,3515 2057,3515 2057,3503 2061,3503 2061,3487 2065,3487 2065,3475 2068,3475 2068,3460 2072,3460 2072,3440 2076,3440 2076,3420 2080,3420 2080,3396 2084,3396 2084,3353 2088,3353 2088,3258 2084,3258 2084,3218 2080,3218 2080,3199 2076,3199 2076,3183 2072,3183 2072,3167 2068,3167 2068,3155 2065,3155 2065,3143 2061,3143 2061,3131 2057,3131 2057,3124 2053,3124 2053,3112 2049,3112 2049,3104 2045,3104 2045,3096 2041,3096 2041,3088 2037,3088 2037,3084 2033,3084 2033,3076 2029,3076 2029,3068 2025,3068 2025,3060 2021,3060 2021,3056 2017,3056 2017,3048 2013,3048 2013,3045 2009,3045 2009,3041 2005,3041 2005,3033 2001,3033 2001,3029 1997,3029 1997,3025 1993,3025 1993,3021 1989,3021 1989,3013 1985,3013 1985,3009 1981,3009 1981,3005 1978,3005 1978,3001 1974,3001 1974,2997 1970,2997 1970,2993 1966,2993 1966,2989 1962,2989 1962,2985 1958,2985 1958,2981 1954,2981 1954,2977 1946,2977 1946,2973 1942,2973 1942,2969 1938,2969 1938,2965 1934,2965 1934,2961 1930,2961 1930,2958 1926,2958 1926,2954 1918,2954 1918,2950 1914,2950 1914,2946 1906,2946 1906,2942 1902,2942 1902,2938 1895,2938 1895,2934 1891,2934 1891,2930 1883,2930 1883,2926 1875,2926 1875,2922 1867,2922 1867,2918 1863,2918 1863,2914 1855,2914 1855,2910 1843,2910 1843,2906 1835,2906 1835,2902 1827,2902 1827,2898 1819,2898 1819,2894 1808,2894 1808,2890 1796,2890 1796,2886 1784,2886 1784,2882 1772,2882 1772,2878 1752,2878 1752,2874 1740,2874 1740,2871 1721,2871 1721,2867 1693,2867 1693,2863 1661,2863 1661,2859 1511,2859 "/>
  <path class="fil1" d="M2248 4780l122 -610 91 0 -51 260 113 0 52 -260 91 0 -122 610 -91 0 54 -270 -114 0 -54 270 -91 0zm437 -305c20,-92 35,-156 47,-190 12,-34 28,-60 48,-80 28,-28 66,-42 113,-42 51,0 87,17 107,51 14,21 21,48 21,81 0,34 -9,94 -27,180 -19,93 -34,156 -46,190 -12,34 -28,61 -48,80 -28,28 -66,42 -113,42 -52,0 -88,-17 -108,-51 -13,-21 -19,-48 -19,-81 0,-32 8,-92 25,-180zm218 0c18,-88 27,-148 27,-177 0,-36 -15,-53 -46,-53 -16,0 -31,6 -43,18 -11,11 -21,31 -30,59 -8,28 -20,79 -35,153 -17,89 -26,148 -26,178 0,35 15,53 45,53 17,0 31,-6 43,-18 11,-12 21,-31 30,-59 9,-28 20,-80 35,-154zm138 148l91 -453 91 0 -93 461c-2,9 -2,18 -2,27 0,32 15,48 46,48 17,0 32,-7 44,-19 13,-12 21,-29 25,-51l93 -466 91 0 -93 467c-10,49 -29,86 -59,112 -27,25 -65,38 -113,38 -41,0 -73,-12 -96,-37 -19,-20 -29,-48 -29,-83 0,-16 1,-31 4,-44zm356 157l121 -610 143 0c83,0 124,37 124,111 0,20 -3,43 -8,69 -10,50 -23,87 -38,109 -14,23 -35,40 -62,52l32 269 -90 0 -28 -253 -53 0 -50 253 -91 0zm157 -331l54 0c40,0 66,-33 78,-99 4,-21 6,-37 6,-49 0,-33 -16,-50 -48,-50l-51 0 -39 198zm244 165l91 0c-4,18 -6,33 -6,43 0,15 4,26 11,33 8,10 21,16 37,16 18,0 33,-6 46,-17 8,-8 14,-16 17,-25 4,-9 8,-24 13,-45 4,-18 6,-36 6,-54 0,-23 -14,-40 -41,-53l-57 -27c-42,-21 -63,-53 -63,-96 0,-24 2,-46 7,-67 10,-53 28,-92 54,-117 28,-28 64,-42 110,-42 44,0 78,12 102,37 16,16 24,41 24,74 0,17 -2,38 -6,61l-91 0c4,-16 5,-30 5,-44 0,-14 -3,-26 -9,-34 -6,-8 -17,-12 -31,-12 -16,0 -30,5 -40,15 -13,12 -22,33 -28,62 -2,14 -4,28 -4,41 0,22 11,38 34,49l48 23c30,14 50,29 62,44 11,16 17,36 17,60 0,26 -3,52 -8,81 -7,34 -15,61 -23,79 -8,18 -18,34 -32,47 -28,27 -68,40 -120,40 -48,0 -82,-12 -105,-36 -18,-19 -27,-44 -27,-74 0,-15 2,-36 7,-62z"/>
  <path class="fil1" d="M0 5435l17 -487 96 0 -31 374 172 -374 99 0 -9 374 150 -374 96 0 -221 487 -102 0 7 -370 -172 370 -102 0zm525 0l88 -350 85 0 -87 350 -86 0zm100 -407l19 -74 90 0 -19 74 -90 0zm70 407l90 -361 82 0 -9 39c11,-13 25,-23 43,-31 19,-9 43,-13 72,-13l-17 66 -29 0c-20,0 -39,6 -56,18 -16,12 -27,28 -32,48l-58 234 -86 0zm264 -32c-9,-13 -14,-30 -14,-51 0,-19 6,-51 17,-98 12,-45 22,-78 32,-100 9,-22 21,-39 35,-52 25,-22 60,-33 107,-33 41,0 70,10 88,31 11,13 17,32 17,56 0,23 -7,63 -21,119l-177 0c-9,36 -14,60 -14,74 0,10 3,18 10,23 5,5 13,8 24,8 13,0 23,-4 31,-10 11,-8 19,-21 24,-40l86 0c-10,34 -25,59 -45,78 -25,22 -60,33 -106,33 -45,0 -76,-13 -94,-38zm97 -180l91 0c8,-27 12,-48 12,-62 0,-21 -12,-31 -34,-31 -15,0 -27,5 -36,14 -11,12 -22,38 -33,79zm241 188c-18,-14 -26,-32 -26,-55 0,-12 1,-22 3,-31l94 -377 86 0 -92 372c-2,7 -3,14 -3,22 0,21 15,32 46,32l-14 61c-43,0 -74,-8 -94,-24zm169 -8c-9,-13 -14,-30 -14,-51 0,-19 6,-51 18,-98 11,-45 21,-78 31,-100 9,-22 21,-39 35,-52 25,-22 61,-33 108,-33 40,0 69,10 87,31 11,13 17,32 17,56 0,23 -7,63 -20,119l-178 0c-9,36 -14,60 -14,74 0,10 4,18 10,23 5,5 13,8 24,8 13,0 24,-4 32,-10 10,-8 18,-21 24,-40l85 0c-9,34 -25,59 -45,78 -25,22 -60,33 -106,33 -45,0 -76,-13 -94,-38zm97 -180l92 0c7,-27 11,-48 11,-62 0,-21 -11,-31 -34,-31 -14,0 -26,5 -36,14 -11,12 -22,38 -33,79zm219 189c-16,-14 -24,-32 -24,-55 0,-8 2,-17 4,-26l85 0c-1,4 -2,9 -2,16 0,9 3,16 9,22 7,7 18,11 32,11 15,0 27,-4 37,-13 11,-9 17,-22 17,-39 0,-18 -12,-33 -37,-44l-41 -17c-39,-17 -59,-43 -59,-77 0,-40 17,-72 50,-95 23,-17 55,-26 96,-26 41,0 72,10 92,29 14,15 21,32 21,51 0,6 -2,15 -5,27l-81 0c1,-4 2,-10 2,-17 0,-8 -3,-14 -9,-20 -7,-6 -17,-9 -30,-9 -14,0 -24,3 -32,9 -12,10 -18,23 -18,39 0,14 10,26 31,35l41 18c44,19 66,48 66,86 0,41 -17,73 -50,96 -26,18 -60,28 -100,28 -41,0 -73,-10 -95,-29zm308 0c-16,-14 -24,-32 -24,-55 0,-8 1,-17 3,-26l85 0c-1,4 -1,9 -1,16 0,9 2,16 8,22 8,7 18,11 33,11 15,0 27,-4 37,-13 11,-9 17,-22 17,-39 0,-18 -13,-33 -37,-44l-41 -17c-40,-17 -59,-43 -59,-77 0,-40 16,-72 49,-95 24,-17 56,-26 96,-26 42,0 73,10 93,29 14,15 20,32 20,51 0,6 -1,15 -4,27l-81 0c1,-4 1,-10 1,-17 0,-8 -2,-14 -8,-20 -7,-6 -17,-9 -30,-9 -14,0 -25,3 -33,9 -12,10 -18,23 -18,39 0,14 11,26 32,35l40 18c44,19 66,48 66,86 0,41 -16,73 -49,96 -27,18 -60,28 -101,28 -41,0 -72,-10 -94,-29zm760 23l-91 0 1 -98 -134 0 -50 98 -97 0 263 -487 89 0 19 487zm-91 -164l2 -212 -103 212 101 0zm478 -197l-90 361 -82 0 7 -26c-12,11 -23,18 -33,23 -14,6 -29,9 -45,9 -33,0 -56,-10 -71,-29 -9,-12 -13,-26 -13,-43 0,-6 2,-19 7,-39l63 -256 86 0 -63 256c-3,9 -4,16 -4,22 0,8 3,15 9,20 6,5 15,8 25,8 29,0 47,-17 55,-50l64 -256 85 0zm35 282c0,-11 1,-22 4,-33l47 -187 -44 0 13 -51 44 0 26 -103 85 0 -25 103 60 0 -14 51 -59 0 -46 183c-2,7 -3,15 -3,22 0,22 17,33 50,33l-15 61c-44,0 -76,-8 -97,-24 -17,-14 -26,-33 -26,-55zm210 -102c12,-46 23,-80 32,-101 9,-20 21,-37 36,-51 25,-22 60,-33 105,-33 45,0 77,12 93,37 10,14 15,31 15,52 0,19 -6,51 -17,96 -12,47 -23,81 -33,102 -9,21 -21,38 -35,51 -25,22 -60,34 -105,34 -46,0 -77,-13 -94,-37 -9,-15 -14,-32 -14,-53 0,-18 6,-50 17,-97zm178 0c12,-47 18,-78 18,-93 0,-11 -3,-18 -8,-23 -6,-5 -14,-8 -25,-8 -15,0 -27,5 -36,14 -12,13 -25,50 -41,110 -12,47 -18,79 -18,94 0,11 3,19 8,23 6,6 14,9 25,9 14,0 26,-5 36,-15 12,-12 25,-49 41,-111zm111 181l90 -361 83 0 -7 26c12,-10 23,-18 33,-22 14,-6 29,-9 45,-9 32,0 56,9 71,29 8,12 13,26 13,43 0,6 -3,18 -7,38l-64 256 -85 0 63 -255c2,-9 3,-17 3,-22 0,-8 -3,-15 -9,-20 -6,-6 -14,-8 -25,-8 -28,0 -47,16 -55,50l-63 255 -86 0zm370 -181c12,-46 23,-80 32,-101 9,-20 21,-37 36,-51 25,-22 60,-33 105,-33 45,0 77,12 93,37 10,14 15,31 15,52 0,19 -6,51 -17,96 -12,47 -23,81 -33,102 -9,21 -21,38 -35,51 -25,22 -60,34 -105,34 -46,0 -77,-13 -94,-37 -9,-15 -14,-32 -14,-53 0,-18 6,-50 17,-97zm178 0c12,-47 18,-78 18,-93 0,-11 -3,-18 -8,-23 -6,-5 -14,-8 -25,-8 -15,0 -27,5 -36,14 -12,13 -25,50 -41,110 -12,47 -18,79 -18,94 0,11 3,19 8,23 6,6 14,9 25,9 14,0 26,-5 36,-15 12,-12 25,-49 41,-111zm111 181l90 -361 82 0 -6 26c12,-10 23,-18 33,-22 13,-6 28,-9 45,-9 37,0 62,12 76,37 12,-11 27,-20 45,-28 15,-6 32,-9 50,-9 33,0 57,9 70,29 9,11 13,25 13,43 0,6 -2,18 -7,38l-63 256 -86 0 64 -255c2,-9 3,-17 3,-22 0,-8 -3,-15 -9,-20 -5,-6 -14,-8 -24,-8 -29,0 -47,16 -55,50l-64 255 -85 0 63 -255c2,-9 3,-17 3,-22 0,-8 -2,-15 -8,-20 -6,-6 -14,-8 -25,-8 -29,0 -48,16 -56,50l-63 255 -86 0zm471 66c27,-1 48,-6 61,-17 14,-9 26,-26 39,-50l-16 -360 89 0 -3 254 122 -254 97 0 -222 408c-19,33 -41,55 -68,65 -27,10 -66,15 -116,15l17 -61z"/>
 </g>
</svg>
