<svg height="500" width="1000" xmlns="http://www.w3.org/2000/svg"><g font-size="12" stroke-width="1pt"><path fill="#006" d="M0 0h1000v500H0z"/><path d="M0 0v55.902L888.197 500H1000v-55.902L111.803 0H0zm1000 0v55.9L111.803 500H0v-55.903L888.197 0H1000z" fill="#fff"/><path d="M416.667 0v500h166.666V0H416.667zM0 166.667v166.666h1000V166.667H0z" fill="#fff"/><path d="M0 200v100h1000V200H0zM450 0v500h100V0H450zM0 500l333.333-166.667h74.535L74.536 500H0zM0 0l333.333 166.667h-74.535L0 37.267V0zm592.132 166.667L925.465 0H1000L666.667 166.667h-74.535zM1000 500L666.667 333.333h74.535L1000 462.732V500z" fill="#c00"/></g></svg>