<svg xmlns="http://www.w3.org/2000/svg" width="187.841" height="29.763" version="1.0" viewBox="0 0 3913 620" shape-rendering="geometricPrecision" text-rendering="geometricPrecision" image-rendering="optimizeQuality" fill-rule="evenodd" clip-rule="evenodd"><defs><style>.fil0{fill:#fefefe;fill-rule:nonzero}</style></defs><g id="Слой_x0020_1"><path class="fil0" d="M259 59H79v96h180c13 0 23-2 28-6s8-11 8-21V86c0-10-3-17-8-21s-15-6-28-6zM0 344V0h294c27 0 47 5 60 16 12 10 18 27 18 51v80c0 24-6 41-18 51-13 11-33 16-60 16h-45l159 130H293L155 214H79v130H0zm599-137h151L675 67l-76 140zM445 344L640 0h77l197 344h-90l-41-75H565l-40 75h-80zm579 0V0h65l162 208L1409 0h65v344h-74V131v-15c1-6 2-13 2-21-4 9-8 16-11 22-3 5-6 10-9 14l-129 172h-16l-130-173c-4-6-9-12-12-18s-6-12-8-17c0 7 1 14 1 20 1 5 1 11 1 16v213h-65zm916-284h-225v74h214c34 0 57 6 69 17 12 12 17 33 17 64v48c0 31-5 52-17 64-12 11-35 17-69 17h-212c-34 0-57-6-68-17-12-12-18-33-18-64v-10l70-14v40h244v-78h-215c-33 0-56-6-68-18-11-11-17-32-17-64V81c0-31 6-52 17-64 12-11 35-17 68-17h195c33 0 55 6 67 17 13 11 19 30 19 58v8l-71 16V60zm241 284V0h80v344h-80zm336-65h104c55 0 94-8 117-25 23-18 35-46 35-85 0-36-10-62-29-80-19-19-47-28-85-28h-142v218zm-80 65V0h222c63 0 111 15 145 44 34 30 51 72 51 126 0 32-6 61-20 87-13 25-31 46-56 60-15 10-33 16-55 21-23 4-51 6-86 6h-201zm565 0V0h352v59h-272v76h159v59h-159v85h275v65h-355zm762-285h-180v96h180c14 0 23-2 28-6s8-11 8-21V86c0-10-3-17-8-21s-14-6-28-6zm-259 285V0h294c28 0 48 5 60 16 12 10 18 27 18 51v80c0 24-6 41-18 51-12 11-32 16-60 16h-45l159 130h-114l-139-130h-76v130h-79zM687 620V518h103v15h-83v27h50v15h-50v30h84v15H687zm140 0V518h19v87h79v15h-98zm128 0V518h103v15h-83v27h50v15h-50v30h84v15H955zm228-87h-71v72h71v-25l19 4v12c0 9-2 16-5 19-4 3-10 5-20 5h-60c-10 0-16-2-20-5-3-3-5-9-5-19v-54c0-9 2-15 6-19 3-3 10-5 19-5h60c10 0 16 2 20 5 3 4 5 10 5 19v10l-19 3v-22zm109 0v87h-20v-87h-48v-15h116v15h-48zm150 0h-54v33h54c4 0 7-1 9-2 1-1 2-4 2-8v-12c0-4-1-7-2-8-2-2-5-3-9-3zm-73 87V518h81c8 0 14 2 17 5s5 8 5 15v23c0 7-2 12-5 15s-9 4-17 4h-13l45 40h-26l-40-40h-28v40h-19zm164-15h85v-72h-85v72zm-20-63c0-9 2-15 6-19 3-3 10-5 19-5h74c9 0 16 2 19 5 4 4 6 10 6 19v54c0 9-2 16-5 19-4 3-11 5-20 5h-74c-9 0-16-2-19-5-4-3-6-10-6-19v-54zm185-3c0 3 1 6 1 9v72h-18V518h15l75 67 6 6c2 2 4 5 6 8-1-3-1-6-1-10-1-3-1-6-1-9v-62h18v102h-13l-76-67-7-7c-2-3-4-5-5-7zm167 81h-19V519h19v101zm134-87h-71v72h71v-25l19 4v12c0 9-1 16-5 19-3 3-10 5-20 5h-59c-10 0-17-2-20-5s-5-9-5-19v-54c0-9 2-15 5-19 4-3 10-5 20-5h59c10 0 17 2 20 5 4 4 5 10 5 19v10l-19 3v-22zm150 87V519h19v40h81v-40h20v101h-20v-45h-81v45h-19zm183-15h85v-72h-85v72zm-19-63c0-9 2-15 5-19 4-3 10-5 20-5h74c9 0 16 2 19 5 4 4 5 10 5 19v54c0 9-1 16-5 19-3 3-10 5-19 5h-74c-10 0-16-2-20-5-3-3-5-10-5-19v-54zm185 63h85v-72h-85v72zm-19-63c0-9 2-15 5-19 4-3 10-5 20-5h73c10 0 16 2 20 5 3 4 5 10 5 19v54c0 9-2 16-5 19-4 3-10 5-20 5h-73c-10 0-17-2-20-5-4-3-5-10-5-19v-54zm168 78V518h19v44l64-44h27l-75 49 83 53h-31l-68-46v46h-19zm137 0l59-102h17l61 102h-21l-14-24h-70l-13 24h-19zm40-38h54l-27-49-27 49zm127 38V519h19v40h81v-40h20v101h-20v-45h-81v45h-19zm256-87h-71v27h65c10 0 16 2 20 5 3 3 5 9 5 19v12c0 9-2 16-5 19s-10 5-20 5h-62c-9 0-16-2-19-5-4-3-6-10-6-19v-3l18-3v15h77v-29h-66c-9 0-16-2-19-5-4-3-5-9-5-19v-9c0-10 1-16 5-20 3-3 10-5 19-5h57c9 0 16 2 19 5 4 4 6 9 6 18v2l-18 4v-14z"/></g></svg>